<svg xmlns="http://www.w3.org/2000/svg" width="256" height="256" viewBox="0 0 256 256" version="1.1">
	<path d="M 184.565 48.034 C 183.120 51.254, 181.133 57.057, 180.150 60.930 C 179.166 64.803, 178.168 68.161, 177.931 68.391 C 177.694 68.622, 173.930 68.187, 169.567 67.425 C 165.204 66.663, 157.104 65.754, 151.567 65.406 C 141.395 64.765, 121.060 66.266, 116.520 67.992 C 113.004 69.329, 102.147 83.488, 96.770 93.748 C 86.777 112.816, 82.614 129.874, 82.673 151.500 C 82.734 173.306, 87.470 191.435, 98.218 211 C 103.456 220.534, 113.119 233.130, 116.018 234.202 C 120.473 235.850, 140.251 237.220, 151.500 236.659 C 183.552 235.060, 211.627 224.296, 230.602 206.331 C 233.409 203.674, 233.946 202.984, 231.795 204.799 C 222.802 212.388, 211.250 218.315, 200 221.112 C 192.066 223.084, 173.041 222.857, 165 220.695 C 144.071 215.066, 127.416 201.526, 118.017 182.500 C 112.845 172.032, 110.716 162.811, 110.744 151 C 110.772 139.015, 112.932 129.793, 118.217 119.088 C 127.902 99.474, 144.212 88.620, 164 88.620 C 176.179 88.620, 186.786 92.483, 195.419 100.063 C 198.403 102.683, 198.898 102.827, 200.067 101.420 C 200.786 100.553, 203.653 98.689, 206.437 97.276 C 213.141 93.877, 222.460 93.716, 229.002 96.886 L 233.500 99.066 227.013 93.025 C 223.445 89.703, 219.732 86.732, 218.763 86.425 C 217.523 86.031, 217 84.831, 217 82.380 C 217 77.118, 219.885 65.210, 222.713 58.800 L 225.228 53.100 222.370 50.642 C 220.798 49.290, 219.201 48.376, 218.822 48.610 C 217.301 49.550, 211.936 65.359, 210.813 72.207 C 210.156 76.218, 209.504 79.663, 209.364 79.862 C 209.224 80.061, 204.796 78.374, 199.523 76.112 C 194.250 73.850, 189.262 72, 188.437 72 C 187.612 72, 186.690 71.357, 186.389 70.570 C 185.689 68.747, 189.423 55.051, 191.994 50.012 L 193.954 46.170 190.573 44.176 L 187.192 42.181 184.565 48.034 M 66.244 87.337 C 47.276 100.159, 35.091 116.015, 29.998 134.500 L 28.345 140.500 14.423 145.050 C 5.323 148.024, 0.500 150.085, 0.500 151 C 0.500 151.915, 5.326 153.975, 14.446 156.950 L 28.393 161.500 29.508 166.548 C 31.013 173.366, 36.087 183.966, 41.420 191.441 C 48.303 201.086, 62.410 213.425, 72.864 218.944 L 75.228 220.192 72.529 215.846 C 67.136 207.164, 59.879 190.565, 57.355 181.142 C 53.929 168.347, 52.970 144.149, 55.348 130.500 C 57.884 115.951, 63.338 101.179, 70.950 88.250 C 72.650 85.362, 73.694 83.024, 73.270 83.054 C 72.847 83.083, 69.685 85.010, 66.244 87.337 M 159.243 147.157 C 157.735 148.665, 157.607 155.397, 159.035 158.066 C 160.250 160.336, 163.258 160.599, 164.933 158.581 C 165.611 157.764, 165.981 154.902, 165.805 151.831 C 165.528 146.981, 165.274 146.474, 162.993 146.207 C 161.614 146.046, 159.927 146.473, 159.243 147.157 M 232.064 147.422 C 230.288 149.563, 231.129 158.063, 233.250 159.392 C 237.192 161.864, 240.312 155.363, 238.551 148.345 C 237.873 145.647, 233.996 145.095, 232.064 147.422 M 186.384 153.442 C 184.884 157.350, 188.787 161.486, 195.377 162.972 C 200.306 164.084, 205.621 162.533, 209.221 158.933 C 211.624 156.530, 211.920 155.719, 211.015 154.027 C 209.860 151.870, 205.587 151.240, 204.462 153.062 C 202.840 155.686, 198.795 156.079, 194.552 154.025 C 189.615 151.635, 187.145 151.459, 186.384 153.442" stroke="none" fill="black" fill-rule="evenodd"/>
</svg>